<?xml version="1.0" encoding="iso-8859-1"?>
<!-- Generator: Adobe Illustrator 19.0.0, SVG Export Plug-In . SVG Version: 6.00 Build 0)  -->
<svg version="1.1" id="Layer_1" xmlns="http://www.w3.org/2000/svg" xmlns:xlink="http://www.w3.org/1999/xlink" x="0px" y="0px"
	 viewBox="0 0 512 512" style="enable-background:new 0 0 512 512;" xml:space="preserve">
<circle style="fill:#FFAD9E;" cx="256" cy="256" r="256"/>
<g>
	<path style="fill:#FF6262;" d="M271.141,237.899l-43.585,217.212l55.47,55.47C411.705,497.078,512,388.256,512,256
		c0-8.052-0.39-16.012-1.117-23.873L403.911,125.156L271.141,237.899z"/>
	<polygon style="fill:#FF6262;" points="284.444,85.333 338.891,139.781 271.141,139.781 	"/>
	<polygon style="fill:#FF6262;" points="108.089,273.067 278.759,443.737 240.773,224.97 	"/>
</g>
<rect x="227.556" y="85.333" style="fill:#366695;" width="56.889" height="369.778"/>
<rect x="254.564" y="85.333" style="fill:#273B7A;" width="29.88" height="369.778"/>
<rect x="108.089" y="125.156" style="fill:#263A7A;" width="295.822" height="147.911"/>
<rect x="254.564" y="125.156" style="fill:#121149;" width="149.342" height="147.911"/>
<g>
	<path style="fill:#FFEDB5;" d="M134.332,219.517v-37.614h25.536v7.63h-16.846v8.104h13.881v7.047h-13.881v14.832
		C143.022,219.517,134.332,219.517,134.332,219.517z"/>
	<path style="fill:#FFEDB5;" d="M179.415,219.834c-2.686,0-5.122-0.546-7.311-1.643c-2.191-1.095-4.07-2.534-5.642-4.317
		c-1.57-1.784-2.789-3.824-3.655-6.12c-0.865-2.296-1.298-4.661-1.298-7.099c0-2.472,0.452-4.855,1.352-7.151
		c0.9-2.296,2.153-4.318,3.762-6.068c1.607-1.748,3.513-3.143,5.722-4.186c2.205-1.041,4.617-1.562,7.23-1.562
		c2.684,0,5.122,0.548,7.311,1.643s4.07,2.543,5.641,4.344c1.572,1.802,2.781,3.849,3.629,6.146
		c0.846,2.294,1.271,4.627,1.271,6.992c0,2.474-0.45,4.856-1.35,7.152c-0.9,2.296-2.146,4.317-3.736,6.066
		c-1.589,1.748-3.487,3.151-5.696,4.211C184.439,219.305,182.029,219.834,179.415,219.834z M170.355,200.763
		c0,1.448,0.203,2.851,0.61,4.211c0.407,1.36,0.988,2.569,1.75,3.627c0.759,1.06,1.712,1.907,2.86,2.545
		c1.148,0.638,2.463,0.953,3.948,0.953c1.517,0,2.841-0.334,3.974-1.007c1.129-0.671,2.074-1.545,2.834-2.622
		c0.76-1.077,1.326-2.296,1.695-3.656c0.372-1.358,0.557-2.746,0.557-4.158c0-1.448-0.203-2.851-0.61-4.212
		c-0.407-1.358-0.998-2.56-1.774-3.603c-0.777-1.041-1.731-1.87-2.862-2.489c-1.129-0.617-2.419-0.926-3.867-0.926
		c-1.519,0-2.843,0.326-3.974,0.979c-1.131,0.653-2.076,1.51-2.836,2.569c-0.76,1.059-1.333,2.269-1.72,3.629
		C170.551,197.965,170.355,199.351,170.355,200.763z"/>
	<path style="fill:#FFEDB5;" d="M202.514,219.517v-37.614h16.953c1.765,0,3.4,0.371,4.901,1.114c1.5,0.741,2.798,1.714,3.894,2.913
		c1.095,1.2,1.951,2.56,2.569,4.079c0.617,1.519,0.927,3.055,0.927,4.61c0,1.165-0.141,2.286-0.424,3.363s-0.688,2.093-1.219,3.046
		c-0.529,0.955-1.174,1.812-1.933,2.57c-0.76,0.759-1.617,1.402-2.57,1.932l8.637,13.986h-9.802l-7.577-12.131h-5.668v12.131
		H202.514z M211.203,199.809h7.945c1.024,0,1.907-0.486,2.65-1.458c0.741-0.971,1.112-2.215,1.112-3.734
		c0-1.553-0.422-2.789-1.271-3.708c-0.846-0.919-1.765-1.377-2.755-1.377h-7.682C211.203,189.531,211.203,199.809,211.203,199.809z"
		/>
	<path style="fill:#FFEDB5;" d="M273.503,192.922c-0.141-0.141-0.531-0.405-1.165-0.796c-0.636-0.388-1.431-0.795-2.384-1.217
		c-0.955-0.424-1.996-0.795-3.125-1.114c-1.131-0.319-2.262-0.476-3.391-0.476c-1.483,0-2.622,0.264-3.417,0.795
		c-0.795,0.529-1.191,1.307-1.191,2.331c0,0.636,0.178,1.167,0.531,1.589c0.352,0.424,0.855,0.805,1.51,1.14
		c0.653,0.336,1.465,0.645,2.436,0.927c0.971,0.283,2.093,0.602,3.365,0.953c1.801,0.495,3.424,1.034,4.874,1.617
		c1.448,0.583,2.684,1.307,3.708,2.172c1.024,0.865,1.81,1.915,2.357,3.153c0.546,1.236,0.822,2.719,0.822,4.449
		c0,2.119-0.397,3.913-1.191,5.377c-0.795,1.467-1.846,2.65-3.153,3.551c-1.307,0.898-2.817,1.553-4.529,1.96
		c-1.714,0.405-3.47,0.61-5.272,0.61c-1.379,0-2.782-0.107-4.211-0.319c-1.431-0.212-2.836-0.521-4.212-0.927
		c-1.377-0.405-2.72-0.891-4.027-1.457s-2.508-1.219-3.603-1.962l3.815-7.577c0.178,0.179,0.653,0.514,1.431,1.007
		c0.776,0.495,1.731,0.99,2.86,1.483c1.129,0.495,2.403,0.938,3.815,1.326c1.412,0.39,2.841,0.583,4.291,0.583
		c3.072,0,4.61-0.934,4.61-2.808c0-0.705-0.231-1.288-0.688-1.748c-0.46-0.459-1.096-0.874-1.907-1.246
		c-0.814-0.371-1.767-0.714-2.862-1.033c-1.095-0.319-2.296-0.671-3.601-1.06c-1.733-0.529-3.232-1.103-4.503-1.72
		c-1.272-0.617-2.332-1.333-3.179-2.146c-0.848-0.812-1.476-1.748-1.883-2.808c-0.405-1.059-0.609-2.295-0.609-3.706
		c0-1.977,0.371-3.727,1.112-5.246c0.743-1.519,1.75-2.798,3.02-3.841s2.746-1.829,4.424-2.358s3.451-0.795,5.323-0.795
		c1.341,0,2.65,0.124,3.92,0.371c1.271,0.248,2.481,0.565,3.629,0.955c1.146,0.39,2.232,0.829,3.258,1.326
		c1.024,0.495,1.943,0.988,2.755,1.483L273.503,192.922z"/>
	<path style="fill:#FFEDB5;" d="M279.066,219.517l14.464-37.614h7.046l14.41,37.614h-9.219l-2.912-8.425h-11.709l-2.86,8.425
		H279.066z M297.026,191.121l-4.503,13.984h8.849L297.026,191.121z"/>
	<path style="fill:#FFEDB5;" d="M318.43,219.517v-37.614h8.689v29.986h18.223v7.63H318.43V219.517z"/>
	<path style="fill:#FFEDB5;" d="M376.067,211.887v7.63H349.63v-37.614h25.96v7.63h-17.272v7.309h14.832v7.047h-14.832v7.999
		L376.067,211.887L376.067,211.887z"/>
</g>
<g>
</g>
<g>
</g>
<g>
</g>
<g>
</g>
<g>
</g>
<g>
</g>
<g>
</g>
<g>
</g>
<g>
</g>
<g>
</g>
<g>
</g>
<g>
</g>
<g>
</g>
<g>
</g>
<g>
</g>
</svg>
